<svg width="24" height="24" viewBox="0 0 24 24" fill="none" xmlns="http://www.w3.org/2000/svg">
<path d="M23.2479 3.37437C23.0041 2.92432 22.5997 2.59598 22.1089 2.4499L14.1405 0.0799252C13.1282 -0.221701 12.059 0.356845 11.7571 1.36988L11.2242 3.16135H7.43532C6.37855 3.16135 5.51887 4.02108 5.51887 5.07781V7.31759L1.64292 8.66099C0.772732 8.96261 0.310167 9.91592 0.611746 10.7861L4.80301 22.8789C5.10089 23.7382 6.06657 24.2087 6.92813 23.91L15.2485 21.0262C16.0192 20.7591 16.4697 19.9808 16.3532 19.2018C16.9404 19.0055 17.4026 18.532 17.5831 17.9386C18.5686 18.1896 19.6013 17.6007 19.8907 16.6284L21.0378 12.7724C21.1116 12.5242 20.9703 12.2632 20.7222 12.1894C20.474 12.1156 20.213 12.2569 20.1391 12.505L18.9921 16.361C18.9092 16.6394 18.7041 16.8682 18.4374 16.9829C18.1802 17.0935 17.9255 17.0651 17.6655 16.9878V5.07781C17.6646 4.3063 17.1852 3.59372 16.4705 3.30227C16.242 3.20907 15.9958 3.16135 15.749 3.16135H12.2024L12.6557 1.63737C12.8098 1.12001 13.3559 0.824614 13.8729 0.978522L21.8415 3.34854C22.3524 3.50062 22.6533 4.05371 22.5008 4.56569L21.3211 8.5316C21.2473 8.77974 21.3886 9.04076 21.6367 9.1146C21.8848 9.18829 22.1459 9.04709 22.2197 8.79891L23.3994 4.83319C23.5456 4.34268 23.4917 3.82461 23.2479 3.37437ZM14.9415 20.1403L6.62111 23.0241C6.23951 23.1563 5.82124 22.9535 5.68895 22.5718L1.49764 10.4791C1.36534 10.0974 1.56824 9.67922 1.94994 9.54693L10.0381 6.74359C10.2851 6.65823 10.5505 6.67393 10.7856 6.78799C11.0208 6.9021 11.1973 7.10082 11.2828 7.34778L15.3938 19.2081C15.5261 19.5898 15.3232 20.008 14.9415 20.1403ZM15.7491 4.09895C16.2824 4.09895 16.728 4.54511 16.728 5.07781V17.3375C16.728 17.7674 16.4895 18.1598 16.0741 18.307L12.0884 6.80834C11.7868 5.93815 10.8335 5.47563 9.96328 5.77716L9.46265 5.95066L6.45642 6.99253V5.07781C6.45642 4.53803 6.89555 4.09895 7.43528 4.09895H15.7491Z" fill="black"/>
<path d="M11.5482 14.5169L8.60404 11.9678C7.85705 11.3211 6.65674 11.7397 6.47076 12.7071L5.73526 16.5314C5.5491 17.499 6.50902 18.3327 7.44217 18.0092L11.1219 16.7341C12.0529 16.4114 12.2949 15.1634 11.5482 14.5169ZM11.0544 15.5715C11.0424 15.6339 10.995 15.7857 10.8149 15.8482L7.13515 17.1233C6.87215 17.2145 6.60353 16.9813 6.65599 16.7085L7.39154 12.8841C7.44385 12.6119 7.7797 12.4943 7.99038 12.6766L10.9346 15.2257C11.0787 15.3506 11.0663 15.5091 11.0544 15.5715Z" fill="black"/>
<path d="M21.6167 10.4584C21.5399 10.2741 21.3485 10.1555 21.1492 10.1704C20.9454 10.1856 20.7718 10.3357 20.7266 10.5349C20.6338 10.9445 21.1094 11.261 21.4532 11.021C21.6302 10.8973 21.6998 10.6579 21.6167 10.4584Z" fill="black"/>
</svg>
