<svg width="24" height="24" viewBox="0 0 24 24" fill="none" xmlns="http://www.w3.org/2000/svg">
<path d="M20.6403 3.51702C20.3503 3.17593 19.9273 2.98039 19.4798 2.98039H18.0112V2.52099C18.0112 1.9525 17.5486 1.48997 16.9802 1.48997H7.02058C6.45205 1.48997 5.98961 1.9525 5.98961 2.52094V2.98035H4.52079C4.07333 2.98035 3.6503 3.17593 3.36029 3.51698C3.07323 3.85449 2.94917 4.2978 3.01999 4.73319C3.4059 7.10616 4.89927 9.20254 7.01873 10.3524C7.21238 10.818 7.4317 11.2591 7.67593 11.6699C8.45606 12.9827 9.4259 13.8899 10.4934 14.3287C10.6016 15.4225 9.87372 16.4588 8.77756 16.7057C8.77522 16.7063 8.77358 16.7071 8.77128 16.7076C8.55734 16.7587 8.39809 16.9507 8.39809 17.1803V19.4121H7.49546C6.6907 19.4121 6.036 20.0668 6.036 20.8716V22.0235C6.036 22.2922 6.25379 22.51 6.5225 22.51H17.5247C17.7934 22.51 18.0112 22.2922 18.0112 22.0235V20.8716C18.0112 20.0668 17.3565 19.4121 16.5517 19.4121H15.649V17.1803C15.649 16.9503 15.4892 16.758 15.2747 16.7074C15.2726 16.7069 15.2707 16.7062 15.2687 16.7057C14.1642 16.4571 13.435 15.4104 13.5546 14.3084C14.6034 13.8625 15.5563 12.9634 16.3249 11.67C16.5692 11.2591 16.7884 10.818 16.9821 10.3524C19.1015 9.20242 20.5947 7.10607 20.9807 4.73319C21.0515 4.2978 20.9274 3.85453 20.6403 3.51702ZM3.98034 4.57697C3.95505 4.4215 3.99804 4.2689 4.10141 4.14729C4.20631 4.02396 4.35911 3.95327 4.52075 3.95327H5.98957V4.84834C5.98957 6.25185 6.16869 7.61134 6.50817 8.8546C5.17405 7.80035 4.25549 6.26888 3.98034 4.57697ZM16.5517 20.3852C16.82 20.3852 17.0382 20.6034 17.0382 20.8717V21.5371H7.00896V20.8717C7.00896 20.6034 7.22721 20.3852 7.49546 20.3852H16.5517ZM14.676 17.6668V19.4122H9.37117V17.6668H14.676ZM10.647 16.6939C10.7673 16.5615 10.8772 16.418 10.9756 16.2644C11.2998 15.7579 11.4699 15.1823 11.4776 14.5946C11.6504 14.6181 11.8248 14.6307 12.0007 14.6307C12.192 14.6307 12.3816 14.616 12.5693 14.5882C12.5804 15.378 12.8878 16.1257 13.4048 16.6938H10.647V16.6939ZM17.0381 4.84839C17.0381 7.24513 16.4877 9.49124 15.4884 11.1728C14.5363 12.7752 13.2976 13.6577 12.0006 13.6577C10.7034 13.6577 9.46457 12.7753 8.5123 11.1729C7.51295 9.49128 6.96257 7.24517 6.96257 4.84847V2.52094C6.96257 2.48892 6.98859 2.46293 7.02053 2.46293H16.9801C17.0121 2.46293 17.0381 2.48896 17.0381 2.52094V4.84839ZM20.0203 4.57697C19.7452 6.26876 18.8267 7.80019 17.4926 8.85452C17.832 7.61125 18.0112 6.25185 18.0112 4.84839V3.95331H19.4798C19.6415 3.95331 19.7943 4.02404 19.8992 4.14733C20.0025 4.2689 20.0456 4.4215 20.0203 4.57697Z" fill="black"/>
<path d="M14.9533 6.48461C14.8961 6.30856 14.7438 6.18022 14.5606 6.15354L13.0926 5.94022L12.436 4.60996C12.3541 4.44393 12.185 4.33879 11.9998 4.33879C11.8146 4.33879 11.6455 4.44393 11.5635 4.60996L10.907 5.94022L9.439 6.15354C9.25573 6.18014 9.1035 6.30852 9.04627 6.48465C8.98908 6.66081 9.03678 6.8541 9.16939 6.98338L10.2317 8.01883L9.98088 9.48091C9.94956 9.66344 10.0246 9.84786 10.1744 9.95674C10.3242 10.0656 10.5228 10.0799 10.6867 9.99377L11.9998 9.30351L13.3128 9.99377C13.384 10.0312 13.4617 10.0496 13.5391 10.0496C13.6399 10.0496 13.7404 10.0183 13.8251 9.9567C13.9749 9.84782 14.05 9.6634 14.0186 9.48087L13.7678 8.01878L14.8301 6.98334C14.9628 6.8541 15.0105 6.66077 14.9533 6.48461ZM12.9056 7.50059C12.791 7.61234 12.7386 7.77336 12.7657 7.93121L12.8931 8.6739L12.2261 8.32325C12.1553 8.28597 12.0775 8.26741 11.9998 8.26741C11.922 8.26741 11.8442 8.28605 11.7734 8.32325L11.1064 8.6739L11.2338 7.93121C11.2609 7.7734 11.2085 7.61238 11.0939 7.50059L10.5544 6.97468L11.3 6.86629C11.4584 6.8433 11.5954 6.74374 11.6663 6.60017L11.9998 5.92449L12.3332 6.60017C12.4041 6.74374 12.5411 6.84326 12.6995 6.86629L13.4452 6.97468L12.9056 7.50059Z" fill="black"/>
</svg>
