<svg width="161" height="160" viewBox="0 0 161 160" fill="none" xmlns="http://www.w3.org/2000/svg">
<rect x="25" y="35.5" width="110" height="84" fill="white"/>
<path d="M80.5 0C36.3897 0 0.5 35.8897 0.5 80C0.5 124.11 36.3897 160 80.5 160C124.61 160 160.5 124.11 160.5 80C160.5 35.8897 124.61 0 80.5 0ZM125.212 58.9474L74.084 109.674C71.0764 112.682 66.2644 112.882 63.0564 109.875L35.9887 85.213C32.7807 82.2055 32.5802 77.193 35.3872 73.985C38.3947 70.7769 43.4073 70.5764 46.6153 73.584L68.0689 93.2331L113.783 47.5188C116.991 44.3108 122.004 44.3108 125.212 47.5188C128.42 50.7268 128.42 55.7393 125.212 58.9474Z" fill="#7CBF85"/>
</svg>
