<svg width="11" height="11" viewBox="0 0 11 11" fill="none" xmlns="http://www.w3.org/2000/svg">
<path d="M10.3866 5.11334L7.69328 1.34667C7.46661 1.02667 7.09994 0.833336 6.70661 0.833336C5.71328 0.833336 5.13994 1.95334 5.71328 2.76L7.66661 5.5L5.71328 8.24C5.13328 9.04667 5.71328 10.1667 6.70661 10.1667C7.09994 10.1667 7.47328 9.97334 7.69994 9.65333L10.3933 5.88667C10.5533 5.65334 10.5533 5.34667 10.3866 5.11334Z" fill="white"/>
<path d="M5.72011 5.11334L3.03344 1.34667C2.80011 1.02667 2.43344 0.833336 2.04011 0.833336C1.04677 0.833336 0.466773 1.95334 1.04677 2.76L3.00011 5.5L1.04677 8.24C0.466773 9.04667 1.04677 10.1667 2.04011 10.1667C2.43344 10.1667 2.80677 9.97334 3.03344 9.65333L5.72677 5.88667C5.88677 5.65334 5.88677 5.34667 5.72011 5.11334Z" fill="white"/>
</svg>
