<svg width="232" height="238" viewBox="0 0 232 238" fill="none" xmlns="http://www.w3.org/2000/svg">
<path fill-rule="evenodd" clip-rule="evenodd" d="M60.2356 13.1669C61.6439 5.53956 68.3386 0 76.1482 0H195.432C205.535 0 213.167 9.09306 211.345 18.9603L211.287 19.2763H214.846C224.949 19.2763 232.58 28.3694 230.758 38.2366L199.912 205.298C198.504 212.925 191.809 218.465 184 218.465H152.507L151.379 224.574C149.971 232.202 143.276 237.741 135.467 237.741H16.1825C6.07948 237.741 -1.55191 228.648 0.269941 218.781L31.1156 51.7195C32.5239 44.0922 39.2186 38.5526 47.0281 38.5526H55.5485L60.2356 13.1669Z" fill="#0F0D1A"/>
<path fill-rule="evenodd" clip-rule="evenodd" d="M60.2984 13.1669C61.7067 5.53957 68.4015 0 76.211 0H195.495C205.598 0 213.23 9.09306 211.408 18.9603L180.562 186.022C179.154 193.649 172.459 199.189 164.65 199.189H45.3654C35.2623 199.189 27.6309 190.096 29.4528 180.228L60.2984 13.1669ZM76.211 6.42544C71.5253 6.42544 67.5084 9.74918 66.6635 14.3256L35.8178 181.387C34.7247 187.307 39.3036 192.763 45.3654 192.763H164.65C169.335 192.763 173.352 189.44 174.197 184.863L205.043 17.8016C206.136 11.8813 201.557 6.42544 195.495 6.42544H76.211Z" fill="#C5233A"/>
<path d="M55.5484 38.5527H47.0281C39.2186 38.5527 32.5238 44.0923 31.1156 51.7196L0.269941 218.781C-1.55191 228.648 6.07948 237.742 16.1825 237.742H135.467C143.276 237.742 149.971 232.202 151.379 224.575L152.515 218.425H145.936L145.014 223.416C144.169 227.992 140.152 231.316 135.467 231.316H16.1825C10.1207 231.316 5.54185 225.86 6.63497 219.94L37.4806 52.8783C38.3256 48.3019 42.3424 44.9782 47.0281 44.9782H54.3621L55.5484 38.5527Z" fill="#FBB045"/>
<path d="M48.861 199.189L48.8027 199.505C46.9808 209.372 54.6122 218.465 64.7152 218.465H183.999C191.809 218.465 198.504 212.926 199.912 205.298L230.758 38.2367C232.579 28.3694 224.948 19.2764 214.845 19.2764H211.286L210.1 25.7018H214.845C220.907 25.7018 225.486 31.1576 224.393 37.078L193.547 204.14C192.702 208.716 188.685 212.04 183.999 212.04H64.7152C58.6534 212.04 54.0746 206.584 55.1677 200.663L55.44 199.189H48.861Z" fill="#1393B6"/>
<path d="M104.917 54.2101C108.583 50.3675 113.68 48.1909 119.01 48.1909H157.553C158.994 48.1909 159.716 49.9212 158.697 50.9331L137.77 71.7121C134.28 75.1769 129.593 77.1922 124.661 77.3482L81.54 78.7118L104.917 54.2101Z" fill="white"/>
<path d="M102.963 127.477C106.453 124.012 111.14 121.997 116.073 121.841L159.193 120.477L135.816 144.979C132.15 148.821 127.054 150.998 121.723 150.998H83.1808C81.7395 150.998 81.0177 149.268 82.0369 148.256L102.963 127.477Z" fill="white"/>
<path d="M132.015 85.1372H108.719V114.052H132.015V85.1372Z" fill="white"/>
<path d="M104.836 81.282L81.54 79.9969V85.7101C81.54 88.4154 82.6851 90.9963 84.6956 92.8221L107.424 114.052L104.836 81.282Z" fill="white"/>
<path d="M156.038 106.367L133.309 85.1372L135.897 117.907L159.193 119.192V113.479C159.193 110.773 158.048 108.193 156.038 106.367Z" fill="white"/>
</svg>
