<svg width="20" height="24" viewBox="0 0 20 24" fill="none" xmlns="http://www.w3.org/2000/svg">
<path d="M18.5341 12.9468L15.2286 10.2857V2.3063C15.2286 1.29807 14.4076 0.477051 13.3994 0.477051H5.46665C4.45842 0.477051 3.64101 1.29807 3.64101 2.3063V3.99506H1.94859C0.940354 3.99506 0.119385 4.81608 0.119385 5.82427V15.2261C0.119385 16.2343 0.940354 17.0553 1.94859 17.0553H3.52218C3.6014 17.4838 3.82106 17.8691 4.16676 18.1428L10.3422 23.1192C11.1272 23.7494 12.2795 23.6306 12.9132 22.8419L18.8114 15.5178C19.4415 14.7328 19.3192 13.5806 18.5341 12.9468ZM1.94859 16.3352C1.33645 16.3352 0.839525 15.8383 0.839525 15.2261V5.82431C0.839525 5.21217 1.33645 4.71525 1.94859 4.71525H9.8813C10.4934 4.71525 10.9904 5.21217 10.9904 5.82431V15.2261C10.9904 15.8383 10.4934 16.3352 9.8813 16.3352H1.94859ZM18.2497 15.0677L12.3515 22.3882C11.9662 22.8707 11.2676 22.9392 10.7959 22.5575L4.61686 17.5811C4.44403 17.4443 4.32159 17.2606 4.25676 17.0554H9.8813C10.8895 17.0554 11.7105 16.2344 11.7105 15.2262V13.5374H13.3994C14.4076 13.5374 15.2286 12.7164 15.2286 11.7082V11.2113L18.0804 13.5086C18.5558 13.8938 18.6314 14.5924 18.2497 15.0677Z" fill="#C5233A"/>
<path d="M9.86321 9.32798C9.86321 11.6901 6.25876 13.9298 6.10393 14.0271C6.04632 14.0594 5.98149 14.0775 5.91666 14.0775C5.85184 14.0775 5.78344 14.0595 5.72584 14.0271C5.57457 13.9298 1.96655 11.6901 1.96655 9.32798C1.96655 8.02804 3.02522 6.97302 4.32151 6.97302C4.92287 6.97302 5.48457 7.19624 5.91666 7.59238C6.34515 7.19624 6.9069 6.97302 7.50826 6.97302C8.80459 6.97298 9.86321 8.02804 9.86321 9.32798Z" fill="#C5233A"/>
</svg>
