<svg width="17" height="17" viewBox="0 0 17 17" fill="none" xmlns="http://www.w3.org/2000/svg">
<g clip-path="url(#clip0_485_6134)">
<path d="M13.3734 3.79605C12.0472 2.46993 10.6901 0.50293 8.6665 0.50293C6.64294 0.50293 5.28585 2.46993 3.95963 3.79605C2.63354 5.12221 0.666504 6.47937 0.666504 8.50293C0.666504 10.5265 2.63354 11.8836 3.95963 13.2097C5.28585 14.5359 6.64294 16.5029 8.6665 16.5029C10.6901 16.5029 12.0472 14.5359 13.3734 13.2097C14.6995 11.8836 16.6665 10.5265 16.6665 8.50293C16.6665 6.47937 14.6995 5.12221 13.3734 3.79605ZM8.6665 11.099C7.20344 11.099 6.0175 9.9129 6.0175 8.44996C6.0175 6.98702 7.20347 5.80096 8.6665 5.80096C10.1295 5.80096 11.3155 6.98702 11.3155 8.44996C11.3155 9.9129 10.1296 11.099 8.6665 11.099Z" fill="#A51535"/>
</g>
<defs>
<clipPath id="clip0_485_6134">
<rect width="16" height="16" fill="white" transform="translate(0.666504 0.50293)"/>
</clipPath>
</defs>
</svg>
