<svg width="256" height="297" viewBox="0 0 256 297" fill="none" xmlns="http://www.w3.org/2000/svg">
<path d="M144.94 260.214H111.061V290.275H144.94V260.214Z" fill="#353535"/>
<path d="M173.067 296.503H82.9324C79.8884 296.503 77.4204 294.035 77.4204 290.991C77.4204 287.947 79.8884 285.479 82.9324 285.479H173.067C176.111 285.479 178.579 287.947 178.579 290.991C178.579 294.035 176.111 296.503 173.067 296.503Z" fill="#CC1A41"/>
<path d="M255.641 101.319H0.358398V267.849H255.641V101.319Z" fill="#CC1A41"/>
<path d="M248.96 108.003H7.03516V253.056H248.96V108.003Z" fill="#971430"/>
<g opacity="0.16">
<path d="M167.898 108.003L14.6382 253.056H7.03516V222.745L128.267 108.003H167.898Z" fill="white"/>
<path d="M190.15 108.003L36.8911 253.056H22.2881L175.548 108.003H190.15Z" fill="white"/>
<path d="M248.961 108.003V135.045L124.275 253.056H84.6353L237.895 108.003H248.961Z" fill="white"/>
<path d="M248.961 142.277V156.1L146.518 253.056H131.916L248.961 142.277Z" fill="white"/>
</g>
<path d="M152.315 139.687C151.698 139.687 151.08 139.675 150.46 139.651L150.671 134.15C161.554 134.569 172.254 130.658 177.921 124.186C181.892 119.651 183.351 114.132 182.256 107.782C181.553 103.708 179.947 101.125 177.346 99.883C171.776 97.224 162.559 101.114 159.476 102.836L156.791 98.031C157.344 97.722 170.465 90.501 179.716 94.915C183.987 96.953 186.667 100.968 187.68 106.846C189.051 114.799 187.109 122.049 182.062 127.812C175.574 135.221 164.303 139.687 152.315 139.687Z" fill="#DDA903"/>
<path d="M103.685 139.687C104.302 139.687 104.92 139.675 105.54 139.651L105.329 134.15C94.4464 134.569 83.7464 130.658 78.0794 124.186C74.1084 119.651 72.6494 114.132 73.7444 107.782C74.4474 103.708 76.0534 101.125 78.6554 99.883C84.2254 97.224 93.4424 101.114 96.5254 102.836L99.2104 98.031C98.6574 97.722 85.5364 90.501 76.2854 94.915C72.0144 96.953 69.3344 100.968 68.3214 106.846C66.9504 114.799 68.8924 122.049 73.9394 127.812C80.4264 135.221 91.6974 139.687 103.685 139.687Z" fill="#DDA903"/>
<path d="M134.206 149.3H121.794V192.929H134.206V149.3Z" fill="#F4C00B"/>
<path d="M140.385 192.634H115.615C115.615 186.174 120.852 180.937 127.312 180.937H128.688C135.148 180.937 140.385 186.174 140.385 192.634Z" fill="#DDA903"/>
<path d="M151.131 196.314C151.131 197.766 150.54 199.082 149.589 200.037C148.634 200.989 147.317 201.579 145.866 201.579H110.135C107.228 201.579 104.869 199.221 104.869 196.313C104.869 194.861 105.459 193.545 106.411 192.59C107.366 191.638 108.683 191.048 110.134 191.048H145.865C148.772 191.048 151.131 193.406 151.131 196.314Z" fill="#F4C00B"/>
<path d="M151.131 196.314C151.131 197.766 150.54 199.082 149.589 200.037C148.634 200.989 147.317 201.579 145.866 201.579H110.135C107.228 201.579 104.869 199.221 104.869 196.313H151.131V196.314Z" fill="#BC8C04"/>
<path d="M134.206 149.3V165.067C126.357 159.741 123.453 153.088 122.389 149.3H134.206Z" fill="#BC8C04"/>
<path d="M162.774 90.179V122.049C162.774 141.256 147.206 156.825 127.998 156.825C127.33 156.825 126.661 156.806 125.993 156.769C107.723 155.729 93.2231 140.588 93.2231 122.049V90.179H162.774Z" fill="#F4C00B"/>
<path d="M162.774 95.0339V122.049C162.774 141.256 147.206 156.825 127.998 156.825C127.33 156.825 126.661 156.806 125.993 156.769C150.808 154.235 145.238 91.1079 145.238 91.1079L160.091 94.8199L162.774 95.0339Z" fill="#DDA903"/>
<path d="M162.775 90.1819H93.2241V96.8239H162.775V90.1819Z" fill="#BC8C04"/>
<path d="M170.525 89.2129C170.525 90.4849 170.005 91.6359 169.179 92.4709C168.343 93.2969 167.192 93.8169 165.921 93.8169H90.0762C87.5322 93.8169 85.4712 91.7559 85.4712 89.2129C85.4712 87.9409 85.9912 86.7899 86.8172 85.9549C87.6522 85.1289 88.8042 84.6089 90.0752 84.6089H165.92C168.464 84.6079 170.525 86.6689 170.525 89.2129Z" fill="#F4C00B"/>
<path d="M170.525 89.2129C170.525 90.4849 170.005 91.6359 169.179 92.4709C168.343 93.2969 167.192 93.8169 165.921 93.8169H130.421C136.474 91.0779 140.744 87.6439 143.631 84.6079H165.92C168.464 84.6079 170.525 86.6689 170.525 89.2129Z" fill="#DDA903"/>
<path d="M103.741 127.861C101.664 127.861 99.98 126.177 99.98 124.1V104.166C99.98 102.089 101.664 100.405 103.741 100.405C105.818 100.405 107.502 102.089 107.502 104.166V124.1C107.502 126.177 105.818 127.861 103.741 127.861Z" fill="white"/>
<path d="M103.741 136.888C105.61 136.888 107.126 135.372 107.126 133.503C107.126 131.633 105.61 130.118 103.741 130.118C101.871 130.118 100.356 131.633 100.356 133.503C100.356 135.372 101.871 136.888 103.741 136.888Z" fill="white"/>
<path d="M193.103 227.591L210.622 243.787H45.3784L62.8974 227.591L45.3784 211.396H210.622L193.103 227.591Z" fill="white"/>
<path d="M210.622 243.787H45.3784L62.8974 227.591H193.103L210.622 243.787Z" fill="#D9CFF9"/>
<path d="M89.8408 235.143C88.8853 235.143 88.0433 234.958 87.3148 234.588C86.5982 234.218 86.0369 233.692 85.6308 233.011C85.2367 232.331 85.0396 231.542 85.0396 230.647V226.777C85.0396 225.893 85.2367 225.117 85.6308 224.448C86.0369 223.768 86.5982 223.242 87.3148 222.872C88.0433 222.502 88.8853 222.316 89.8408 222.316C90.7962 222.316 91.6322 222.496 92.3488 222.854C93.0773 223.2 93.6387 223.696 94.0328 224.341C94.4388 224.974 94.6419 225.708 94.6419 226.544C94.6419 226.604 94.618 226.652 94.5702 226.688C94.5344 226.723 94.4866 226.741 94.4269 226.741L91.883 226.903C91.7397 226.903 91.668 226.837 91.668 226.706C91.668 226.144 91.5008 225.696 91.1664 225.362C90.832 225.028 90.3901 224.86 89.8408 224.86C89.2914 224.86 88.8495 225.034 88.5151 225.38C88.1807 225.714 88.0135 226.156 88.0135 226.706V230.772C88.0135 231.322 88.1807 231.763 88.5151 232.098C88.8495 232.432 89.2914 232.599 89.8408 232.599C90.3901 232.599 90.832 232.432 91.1664 232.098C91.5008 231.763 91.668 231.322 91.668 230.772C91.668 230.641 91.7397 230.575 91.883 230.575L94.4269 230.7C94.4866 230.7 94.5344 230.718 94.5702 230.754C94.618 230.79 94.6419 230.832 94.6419 230.88C94.6419 231.728 94.4388 232.474 94.0328 233.119C93.6387 233.764 93.0773 234.266 92.3488 234.624C91.6322 234.97 90.7962 235.143 89.8408 235.143ZM100.829 235.197C99.8617 235.197 99.0078 235.006 98.2673 234.624C97.5388 234.23 96.9715 233.68 96.5654 232.976C96.1594 232.271 95.9564 231.453 95.9564 230.521V226.938C95.9564 226.031 96.1594 225.231 96.5654 224.538C96.9715 223.833 97.5388 223.29 98.2673 222.908C99.0078 222.514 99.8617 222.316 100.829 222.316C101.797 222.316 102.65 222.514 103.391 222.908C104.131 223.29 104.705 223.833 105.111 224.538C105.517 225.231 105.72 226.031 105.72 226.938V230.521C105.72 231.453 105.517 232.271 105.111 232.976C104.705 233.68 104.131 234.23 103.391 234.624C102.65 235.006 101.797 235.197 100.829 235.197ZM100.829 232.653C101.402 232.653 101.862 232.468 102.209 232.098C102.567 231.728 102.746 231.232 102.746 230.611V226.903C102.746 226.294 102.567 225.804 102.209 225.434C101.862 225.051 101.402 224.86 100.829 224.86C100.268 224.86 99.808 225.051 99.4497 225.434C99.1033 225.804 98.9302 226.294 98.9302 226.903V230.611C98.9302 231.232 99.1033 231.728 99.4497 232.098C99.808 232.468 100.268 232.653 100.829 232.653ZM115.324 222.603C115.371 222.508 115.455 222.46 115.575 222.46H118.1C118.16 222.46 118.208 222.484 118.244 222.531C118.292 222.567 118.315 222.615 118.315 222.675V234.785C118.315 234.845 118.292 234.898 118.244 234.946C118.208 234.982 118.16 235 118.1 235H115.557C115.497 235 115.443 234.982 115.395 234.946C115.36 234.898 115.342 234.845 115.342 234.785V227.583C115.342 227.536 115.33 227.512 115.306 227.512C115.282 227.512 115.258 227.53 115.234 227.565L113.693 230.038C113.646 230.133 113.562 230.181 113.443 230.181H112.171C112.051 230.181 111.968 230.133 111.92 230.038L110.361 227.548C110.337 227.512 110.314 227.494 110.29 227.494C110.266 227.494 110.254 227.518 110.254 227.565V234.785C110.254 234.845 110.23 234.898 110.182 234.946C110.146 234.982 110.099 235 110.039 235H107.495C107.435 235 107.382 234.982 107.334 234.946C107.298 234.898 107.28 234.845 107.28 234.785V222.675C107.28 222.615 107.298 222.567 107.334 222.531C107.382 222.484 107.435 222.46 107.495 222.46H110.021C110.128 222.46 110.212 222.508 110.272 222.603L112.762 226.508C112.798 226.58 112.834 226.58 112.869 226.508L115.324 222.603ZM125.407 222.46C126.219 222.46 126.936 222.627 127.557 222.961C128.19 223.296 128.674 223.768 129.008 224.377C129.354 224.974 129.528 225.666 129.528 226.455C129.528 227.231 129.348 227.918 128.99 228.515C128.644 229.112 128.148 229.572 127.503 229.894C126.858 230.217 126.112 230.378 125.264 230.378H123.078C123.019 230.378 122.989 230.408 122.989 230.468V234.785C122.989 234.845 122.965 234.898 122.917 234.946C122.881 234.982 122.834 235 122.774 235H120.23C120.17 235 120.116 234.982 120.069 234.946C120.033 234.898 120.015 234.845 120.015 234.785V222.675C120.015 222.615 120.033 222.567 120.069 222.531C120.116 222.484 120.17 222.46 120.23 222.46H125.407ZM124.924 228.013C125.413 228.013 125.807 227.876 126.106 227.601C126.416 227.327 126.572 226.968 126.572 226.526C126.572 226.073 126.416 225.708 126.106 225.434C125.807 225.147 125.413 225.004 124.924 225.004H123.078C123.019 225.004 122.989 225.034 122.989 225.093V227.924C122.989 227.983 123.019 228.013 123.078 228.013H124.924ZM130.99 235C130.931 235 130.877 234.982 130.829 234.946C130.793 234.898 130.775 234.845 130.775 234.785V222.675C130.775 222.615 130.793 222.567 130.829 222.531C130.877 222.484 130.931 222.46 130.99 222.46H133.534C133.594 222.46 133.642 222.484 133.678 222.531C133.725 222.567 133.749 222.615 133.749 222.675V232.367C133.749 232.426 133.779 232.456 133.839 232.456H139.554C139.613 232.456 139.661 232.48 139.697 232.528C139.745 232.564 139.769 232.611 139.769 232.671V234.785C139.769 234.845 139.745 234.898 139.697 234.946C139.661 234.982 139.613 235 139.554 235H130.99ZM149.948 224.789C149.948 224.848 149.925 224.902 149.877 224.95C149.841 224.986 149.793 225.004 149.733 225.004H144.108C144.049 225.004 144.019 225.034 144.019 225.093V227.297C144.019 227.356 144.049 227.386 144.108 227.386H147.709C147.769 227.386 147.817 227.41 147.852 227.458C147.9 227.494 147.924 227.542 147.924 227.601V229.697C147.924 229.757 147.9 229.811 147.852 229.859C147.817 229.894 147.769 229.912 147.709 229.912H144.108C144.049 229.912 144.019 229.942 144.019 230.002V232.367C144.019 232.426 144.049 232.456 144.108 232.456H149.733C149.793 232.456 149.841 232.48 149.877 232.528C149.925 232.564 149.948 232.611 149.948 232.671V234.785C149.948 234.845 149.925 234.898 149.877 234.946C149.841 234.982 149.793 235 149.733 235H141.26C141.2 235 141.146 234.982 141.099 234.946C141.063 234.898 141.045 234.845 141.045 234.785V222.675C141.045 222.615 141.063 222.567 141.099 222.531C141.146 222.484 141.2 222.46 141.26 222.46H149.733C149.793 222.46 149.841 222.484 149.877 222.531C149.925 222.567 149.948 222.615 149.948 222.675V224.789ZM160.449 222.46C160.509 222.46 160.557 222.484 160.592 222.531C160.64 222.567 160.664 222.615 160.664 222.675V224.807C160.664 224.866 160.64 224.92 160.592 224.968C160.557 225.004 160.509 225.022 160.449 225.022H157.314C157.254 225.022 157.224 225.051 157.224 225.111V234.785C157.224 234.845 157.201 234.898 157.153 234.946C157.117 234.982 157.069 235 157.009 235H154.466C154.406 235 154.352 234.982 154.304 234.946C154.269 234.898 154.251 234.845 154.251 234.785V225.111C154.251 225.051 154.221 225.022 154.161 225.022H151.133C151.074 225.022 151.02 225.004 150.972 224.968C150.936 224.92 150.918 224.866 150.918 224.807V222.675C150.918 222.615 150.936 222.567 150.972 222.531C151.02 222.484 151.074 222.46 151.133 222.46H160.449ZM170.855 224.789C170.855 224.848 170.831 224.902 170.783 224.95C170.747 224.986 170.699 225.004 170.64 225.004H165.014C164.955 225.004 164.925 225.034 164.925 225.093V227.297C164.925 227.356 164.955 227.386 165.014 227.386H168.615C168.675 227.386 168.723 227.41 168.759 227.458C168.806 227.494 168.83 227.542 168.83 227.601V229.697C168.83 229.757 168.806 229.811 168.759 229.859C168.723 229.894 168.675 229.912 168.615 229.912H165.014C164.955 229.912 164.925 229.942 164.925 230.002V232.367C164.925 232.426 164.955 232.456 165.014 232.456H170.64C170.699 232.456 170.747 232.48 170.783 232.528C170.831 232.564 170.855 232.611 170.855 232.671V234.785C170.855 234.845 170.831 234.898 170.783 234.946C170.747 234.982 170.699 235 170.64 235H162.166C162.106 235 162.053 234.982 162.005 234.946C161.969 234.898 161.951 234.845 161.951 234.785V222.675C161.951 222.615 161.969 222.567 162.005 222.531C162.053 222.484 162.106 222.46 162.166 222.46H170.64C170.699 222.46 170.747 222.484 170.783 222.531C170.831 222.567 170.855 222.615 170.855 222.675V224.789Z" fill="#971430"/>
<path d="M180.915 204.364H55.5892C54.0512 204.364 52.8042 203.117 52.8042 201.579C52.8042 200.041 54.0512 198.794 55.5892 198.794H180.915C182.453 198.794 183.7 200.041 183.7 201.579C183.7 203.117 182.453 204.364 180.915 204.364Z" fill="white"/>
<path d="M200.41 204.364H192.055C190.517 204.364 189.27 203.117 189.27 201.579C189.27 200.041 190.517 198.794 192.055 198.794H200.41C201.948 198.794 203.195 200.041 203.195 201.579C203.195 203.117 201.948 204.364 200.41 204.364Z" fill="white"/>
<path d="M227.147 14.75V37.03C227.147 45.17 220.537 51.78 212.387 51.78H142.087C140.057 51.78 138.207 52.95 137.337 54.78L131.447 67.16C130.067 70.07 125.927 70.07 124.547 67.16L118.667 54.78C117.797 52.95 115.947 51.78 113.917 51.78H43.6074C35.4574 51.78 28.8574 45.17 28.8574 37.03V14.75C28.8574 6.6 35.4574 0 43.6074 0H212.387C220.537 0 227.147 6.6 227.147 14.75Z" fill="#CC1A41"/>
<path d="M227.147 24.98V37.03C227.147 45.17 220.537 51.78 212.387 51.78H142.087C140.057 51.78 138.207 52.95 137.337 54.78L131.447 67.16C130.067 70.07 125.927 70.07 124.547 67.16L118.667 54.78C117.797 52.95 115.947 51.78 113.917 51.78H43.6074C35.4574 51.78 28.8574 45.17 28.8574 37.03V24.98H227.147Z" fill="#B7183A"/>
<path d="M64.7712 13.057L67.3202 18.221C67.6372 18.863 68.2492 19.308 68.9572 19.411L74.6562 20.239C76.4402 20.498 77.1522 22.69 75.8612 23.948L71.7372 27.968C71.2242 28.468 70.9912 29.187 71.1122 29.893L72.0862 35.569C72.3912 37.345 70.5262 38.7 68.9312 37.861L63.8332 35.181C63.2002 34.848 62.4432 34.848 61.8092 35.181L56.7112 37.861C55.1162 38.7 53.2512 37.345 53.5562 35.569L54.5302 29.893C54.6512 29.188 54.4172 28.468 53.9052 27.968L49.7812 23.948C48.4902 22.69 49.2032 20.498 50.9862 20.239L56.6852 19.411C57.3932 19.308 58.0062 18.863 58.3222 18.221L60.8712 13.057C61.6692 11.44 63.9742 11.44 64.7712 13.057Z" fill="#F4C00B"/>
<path d="M97.361 13.057L99.91 18.221C100.227 18.863 100.839 19.308 101.547 19.411L107.246 20.239C109.03 20.498 109.742 22.69 108.451 23.948L104.327 27.968C103.814 28.468 103.581 29.187 103.702 29.893L104.676 35.569C104.981 37.345 103.116 38.7 101.521 37.861L96.423 35.181C95.79 34.848 95.0331 34.848 94.3991 35.181L89.302 37.861C87.707 38.7 85.842 37.345 86.147 35.569L87.12 29.893C87.241 29.188 87.007 28.468 86.495 27.968L82.371 23.948C81.08 22.69 81.793 20.498 83.576 20.239L89.275 19.411C89.983 19.308 90.5961 18.863 90.9121 18.221L93.461 13.057C94.258 11.44 96.563 11.44 97.361 13.057Z" fill="#F4C00B"/>
<path d="M129.95 13.057L132.499 18.221C132.816 18.863 133.428 19.308 134.136 19.411L139.835 20.239C141.619 20.498 142.331 22.69 141.04 23.948L136.916 27.968C136.404 28.468 136.17 29.187 136.291 29.893L137.265 35.569C137.57 37.345 135.705 38.7 134.11 37.861L129.013 35.181C128.379 34.848 127.623 34.848 126.989 35.181L121.891 37.861C120.296 38.7 118.431 37.345 118.736 35.569L119.709 29.893C119.83 29.188 119.596 28.468 119.084 27.968L114.96 23.948C113.669 22.69 114.382 20.498 116.165 20.239L121.864 19.411C122.572 19.308 123.185 18.863 123.501 18.221L126.05 13.057C126.848 11.44 129.152 11.44 129.95 13.057Z" fill="#F4C00B"/>
<path d="M162.539 13.057L165.088 18.221C165.405 18.863 166.017 19.308 166.725 19.411L172.424 20.239C174.208 20.498 174.92 22.69 173.629 23.948L169.505 27.968C168.993 28.468 168.759 29.187 168.88 29.893L169.854 35.569C170.159 37.345 168.294 38.7 166.699 37.861L161.602 35.181C160.968 34.848 160.212 34.848 159.578 35.181L154.481 37.861C152.886 38.7 151.021 37.345 151.326 35.569L152.3 29.893C152.421 29.188 152.187 28.468 151.675 27.968L147.551 23.948C146.26 22.69 146.973 20.498 148.756 20.239L154.455 19.411C155.163 19.308 155.776 18.863 156.092 18.221L158.641 13.057C159.437 11.44 161.741 11.44 162.539 13.057Z" fill="#F4C00B"/>
<path d="M195.128 13.057L197.677 18.221C197.994 18.863 198.606 19.308 199.314 19.411L205.013 20.239C206.797 20.498 207.509 22.69 206.218 23.948L202.094 27.968C201.582 28.468 201.348 29.187 201.469 29.893L202.443 35.569C202.748 37.345 200.883 38.7 199.288 37.861L194.19 35.181C193.557 34.848 192.8 34.848 192.166 35.181L187.069 37.861C185.474 38.7 183.609 37.345 183.914 35.569L184.888 29.893C185.009 29.188 184.775 28.468 184.262 27.968L180.138 23.948C178.847 22.69 179.56 20.498 181.343 20.239L187.042 19.411C187.75 19.308 188.363 18.863 188.679 18.221L191.228 13.057C192.026 11.44 194.331 11.44 195.128 13.057Z" fill="#F4C00B"/>
</svg>
