<svg width="24" height="24" viewBox="0 0 24 24" fill="none" xmlns="http://www.w3.org/2000/svg">
<path d="M23.2482 3.37437C23.0044 2.92432 22.5999 2.59598 22.1091 2.4499L14.1407 0.0799252C13.1284 -0.221701 12.0592 0.356846 11.7574 1.36988L11.2245 3.16135H7.43557C6.3788 3.16135 5.51911 4.02108 5.51911 5.07781V7.31759L1.64316 8.66099C0.772976 8.96261 0.310411 9.91592 0.61199 10.7861L4.80325 22.8789C5.10113 23.7382 6.06681 24.2087 6.92837 23.91L15.2487 21.0262C16.0194 20.7591 16.4699 19.9808 16.3535 19.2018C16.9406 19.0055 17.4028 18.532 17.5834 17.9386C18.5688 18.1896 19.6015 17.6007 19.8909 16.6284L21.038 12.7724C21.1118 12.5242 20.9705 12.2632 20.7224 12.1894C20.4743 12.1156 20.2132 12.2569 20.1394 12.505L18.9923 16.361C18.9094 16.6394 18.7043 16.8682 18.4376 16.9829C18.1805 17.0935 17.9257 17.0651 17.6658 16.9878V5.07781C17.6648 4.3063 17.1854 3.59372 16.4707 3.30227C16.2422 3.20907 15.996 3.16135 15.7493 3.16135H12.2026L12.656 1.63737C12.8101 1.12001 13.3561 0.824614 13.8732 0.978522L21.8417 3.34854C22.3526 3.50062 22.6536 4.05371 22.501 4.56569L21.3213 8.5316C21.2475 8.77973 21.3888 9.04076 21.6369 9.1146C21.8851 9.18829 22.1461 9.04709 22.22 8.79891L23.3997 4.83319C23.5458 4.34268 23.492 3.82461 23.2482 3.37437ZM14.9418 20.1403L6.62136 23.0241C6.23975 23.1563 5.82149 22.9535 5.68919 22.5718L1.49788 10.4791C1.36559 10.0974 1.56848 9.67922 1.95018 9.54693L10.0384 6.74359C10.2853 6.65823 10.5508 6.67393 10.7858 6.78799C11.021 6.9021 11.1975 7.10082 11.2831 7.34778L15.394 19.2081C15.5263 19.5898 15.3234 20.008 14.9418 20.1403ZM15.7493 4.09895C16.2826 4.09895 16.7282 4.54511 16.7282 5.07781V17.3375C16.7282 17.7674 16.4897 18.1598 16.0744 18.307L12.0886 6.80834C11.7871 5.93815 10.8337 5.47563 9.96353 5.77716L9.46289 5.95066L6.45667 6.99253V5.07781C6.45667 4.53803 6.89579 4.09895 7.43552 4.09895H15.7493Z" fill="white"/>
<path d="M11.5487 14.5169L8.60453 11.9678C7.85754 11.3211 6.65723 11.7397 6.47125 12.7071L5.73575 16.5314C5.54959 17.499 6.50951 18.3327 7.44265 18.0092L11.1224 16.7341C12.0534 16.4114 12.2954 15.1634 11.5487 14.5169ZM11.0549 15.5715C11.0429 15.6339 10.9955 15.7857 10.8153 15.8482L7.13564 17.1233C6.87264 17.2145 6.60402 16.9813 6.65648 16.7085L7.39202 12.8841C7.44434 12.6119 7.78019 12.4943 7.99087 12.6766L10.9351 15.2257C11.0792 15.3506 11.0668 15.5091 11.0549 15.5715Z" fill="white"/>
<path d="M21.6169 10.4584C21.5401 10.2741 21.3487 10.1555 21.1495 10.1704C20.9457 10.1856 20.7721 10.3357 20.7269 10.5349C20.634 10.9445 21.1097 11.261 21.4534 11.021C21.6305 10.8973 21.7001 10.6579 21.6169 10.4584Z" fill="white"/>
</svg>
