<svg width="17" height="17" viewBox="0 0 17 17" fill="none" xmlns="http://www.w3.org/2000/svg">
<path d="M15.7886 7.3778L12.6741 10.4138L13.4096 14.7018C13.4416 14.8893 13.3646 15.0788 13.2106 15.1908C13.1236 15.2543 13.0201 15.2863 12.9166 15.2863C12.8371 15.2863 12.7571 15.2673 12.6841 15.2288L8.83309 13.2043L4.98259 15.2283C4.81459 15.3173 4.61009 15.3028 4.45609 15.1903C4.30209 15.0783 4.22509 14.8888 4.25709 14.7013L4.99259 10.4133L1.87759 7.3778C1.74159 7.2448 1.69209 7.0458 1.75109 6.8653C1.81009 6.6848 1.96659 6.5523 2.15509 6.5248L6.45959 5.8998L8.38459 1.9988C8.55309 1.6573 9.11309 1.6573 9.28159 1.9988L11.2066 5.8998L15.5111 6.5248C15.6996 6.5523 15.8561 6.6843 15.9151 6.8653C15.9741 7.0463 15.9246 7.2443 15.7886 7.3778Z" fill="#A51535"/>
</svg>
