<svg width="32" height="32" viewBox="0 0 32 32" fill="none" xmlns="http://www.w3.org/2000/svg">
<g clip-path="url(#clip0_496_6871)">
<path d="M25.9067 17.3067C25.96 16.88 26 16.4533 26 16C26 15.5467 25.96 15.12 25.9067 14.6933L28.72 12.4933C28.9734 12.2933 29.04 11.9333 28.88 11.64L26.2134 7.02666C26.0934 6.81332 25.8667 6.69332 25.6267 6.69332C25.5467 6.69332 25.4667 6.70666 25.4 6.73332L22.08 8.06666C21.3867 7.53332 20.64 7.09332 19.8267 6.75999L19.32 3.22666C19.28 2.90666 19 2.66666 18.6667 2.66666H13.3334C13 2.66666 12.72 2.90666 12.68 3.22666L12.1734 6.75999C11.36 7.09332 10.6134 7.54666 9.92003 8.06666L6.60003 6.73332C6.52003 6.70666 6.44003 6.69332 6.36003 6.69332C6.13336 6.69332 5.9067 6.81332 5.7867 7.02666L3.12003 11.64C2.9467 11.9333 3.0267 12.2933 3.28003 12.4933L6.09336 14.6933C6.04003 15.12 6.00003 15.56 6.00003 16C6.00003 16.44 6.04003 16.88 6.09336 17.3067L3.28003 19.5067C3.0267 19.7067 2.96003 20.0667 3.12003 20.36L5.7867 24.9733C5.9067 25.1867 6.13336 25.3067 6.37336 25.3067C6.45336 25.3067 6.53336 25.2933 6.60003 25.2667L9.92003 23.9333C10.6134 24.4667 11.36 24.9067 12.1734 25.24L12.68 28.7733C12.72 29.0933 13 29.3333 13.3334 29.3333H18.6667C19 29.3333 19.28 29.0933 19.32 28.7733L19.8267 25.24C20.64 24.9067 21.3867 24.4533 22.08 23.9333L25.4 25.2667C25.48 25.2933 25.56 25.3067 25.64 25.3067C25.8667 25.3067 26.0934 25.1867 26.2134 24.9733L28.88 20.36C29.04 20.0667 28.9734 19.7067 28.72 19.5067L25.9067 17.3067ZM23.2667 15.0267C23.32 15.44 23.3334 15.72 23.3334 16C23.3334 16.28 23.3067 16.5733 23.2667 16.9733L23.08 18.48L24.2667 19.4133L25.7067 20.5333L24.7734 22.1467L23.08 21.4667L21.6934 20.9067L20.4934 21.8133C19.92 22.24 19.3734 22.56 18.8267 22.7867L17.4134 23.36L17.2 24.8667L16.9334 26.6667H15.0667L14.8134 24.8667L14.6 23.36L13.1867 22.7867C12.6134 22.5467 12.08 22.24 11.5467 21.84L10.3334 20.9067L8.92003 21.48L7.2267 22.16L6.29336 20.5467L7.73336 19.4267L8.92003 18.4933L8.73336 16.9867C8.69336 16.5733 8.6667 16.2667 8.6667 16C8.6667 15.7333 8.69336 15.4267 8.73336 15.0267L8.92003 13.52L7.73336 12.5867L6.29336 11.4667L7.2267 9.85332L8.92003 10.5333L10.3067 11.0933L11.5067 10.1867C12.08 9.75999 12.6267 9.43999 13.1734 9.21332L14.5867 8.63999L14.8 7.13332L15.0667 5.33332H16.92L17.1734 7.13332L17.3867 8.63999L18.8 9.21332C19.3734 9.45332 19.9067 9.75999 20.44 10.16L21.6534 11.0933L23.0667 10.52L24.76 9.83999L25.6934 11.4533L24.2667 12.5867L23.08 13.52L23.2667 15.0267ZM16 10.6667C13.0534 10.6667 10.6667 13.0533 10.6667 16C10.6667 18.9467 13.0534 21.3333 16 21.3333C18.9467 21.3333 21.3334 18.9467 21.3334 16C21.3334 13.0533 18.9467 10.6667 16 10.6667ZM16 18.6667C14.5334 18.6667 13.3334 17.4667 13.3334 16C13.3334 14.5333 14.5334 13.3333 16 13.3333C17.4667 13.3333 18.6667 14.5333 18.6667 16C18.6667 17.4667 17.4667 18.6667 16 18.6667Z" fill="white"/>
</g>
<defs>
<clipPath id="clip0_496_6871">
<rect width="32" height="32" fill="white"/>
</clipPath>
</defs>
</svg>
