<svg width="16" height="17" viewBox="0 0 16 17" fill="none" xmlns="http://www.w3.org/2000/svg">
<path d="M7.99984 1.16943C6.54944 1.16943 5.13162 1.59953 3.92566 2.40532C2.7197 3.21112 1.77977 4.35643 1.22472 5.69642C0.669681 7.03641 0.524457 8.5109 0.807415 9.93343C1.09037 11.356 1.78881 12.6626 2.81439 13.6882C3.83998 14.7138 5.14665 15.4122 6.56918 15.6952C7.99171 15.9782 9.4662 15.8329 10.8062 15.2779C12.1462 14.7228 13.2915 13.7829 14.0973 12.5769C14.9031 11.371 15.3332 9.95316 15.3332 8.50277C15.3309 6.55855 14.5575 4.69462 13.1828 3.31985C11.808 1.94508 9.94406 1.17173 7.99984 1.16943ZM10.4712 10.9741C10.3462 11.0991 10.1766 11.1693 9.99984 11.1693C9.82306 11.1693 9.65353 11.0991 9.52851 10.9741L7.52851 8.9741C7.40347 8.84911 7.33321 8.67956 7.33317 8.50277V4.50277C7.33317 4.32596 7.40341 4.15639 7.52844 4.03136C7.65346 3.90634 7.82303 3.8361 7.99984 3.8361C8.17665 3.8361 8.34622 3.90634 8.47124 4.03136C8.59627 4.15639 8.66651 4.32596 8.66651 4.50277V8.22677L10.4712 10.0314C10.5962 10.1565 10.6664 10.326 10.6664 10.5028C10.6664 10.6795 10.5962 10.8491 10.4712 10.9741Z" fill="#A51535"/>
</svg>
