<svg width="18" height="18" viewBox="0 0 18 18" fill="none" xmlns="http://www.w3.org/2000/svg">
<path d="M8.99996 0.666626C4.39996 0.666626 0.666626 4.39996 0.666626 8.99996C0.666626 13.6 4.39996 17.3333 8.99996 17.3333H13.1666V15.6666H8.99996C5.38329 15.6666 2.33329 12.6166 2.33329 8.99996C2.33329 5.38329 5.38329 2.33329 8.99996 2.33329C12.6166 2.33329 15.6666 5.38329 15.6666 8.99996V10.1916C15.6666 10.85 15.075 11.5 14.4166 11.5C13.7583 11.5 13.1666 10.85 13.1666 10.1916V8.99996C13.1666 6.69996 11.3 4.83329 8.99996 4.83329C6.69996 4.83329 4.83329 6.69996 4.83329 8.99996C4.83329 11.3 6.69996 13.1666 8.99996 13.1666C10.15 13.1666 11.2 12.7 11.95 11.9416C12.4916 12.6833 13.425 13.1666 14.4166 13.1666C16.0583 13.1666 17.3333 11.8333 17.3333 10.1916V8.99996C17.3333 4.39996 13.6 0.666626 8.99996 0.666626ZM8.99996 11.5C7.61663 11.5 6.49996 10.3833 6.49996 8.99996C6.49996 7.61663 7.61663 6.49996 8.99996 6.49996C10.3833 6.49996 11.5 7.61663 11.5 8.99996C11.5 10.3833 10.3833 11.5 8.99996 11.5Z" fill="#C5233A"/>
</svg>
